<mxfile host="app.diagrams.net" agent="Mozilla/5.0 (Windows NT 10.0; Win64; x64) AppleWebKit/537.36 (KHTML, like Gecko) Chrome/138.0.0.0 Safari/537.36 Edg/138.0.0.0" version="28.0.7">
  <diagram name="Network Infrastructure Diagraam" id="ovMnKWPb5PDUAQWrvuxz">
    <mxGraphModel dx="1861" dy="570" grid="1" gridSize="10" guides="1" tooltips="1" connect="1" arrows="1" fold="1" page="1" pageScale="1" pageWidth="827" pageHeight="1169" math="0" shadow="0">
      <root>
        <mxCell id="0" />
        <mxCell id="1" parent="0" />
        <mxCell id="ZNa6b4LFm4NdDfefMSjD-52" value="AWS Cloud" style="points=[[0,0],[0.25,0],[0.5,0],[0.75,0],[1,0],[1,0.25],[1,0.5],[1,0.75],[1,1],[0.75,1],[0.5,1],[0.25,1],[0,1],[0,0.75],[0,0.5],[0,0.25]];outlineConnect=0;gradientColor=none;html=1;whiteSpace=wrap;fontSize=12;fontStyle=0;container=1;pointerEvents=0;collapsible=0;recursiveResize=0;shape=mxgraph.aws4.group;grIcon=mxgraph.aws4.group_aws_cloud_alt;strokeColor=#232F3E;fillColor=none;verticalAlign=top;align=left;spacingLeft=30;fontColor=#232F3E;dashed=0;" parent="1" vertex="1">
          <mxGeometry x="-800" y="40" width="2320" height="1520" as="geometry" />
        </mxCell>
        <mxCell id="ZNa6b4LFm4NdDfefMSjD-47" value="Public subnet" style="points=[[0,0],[0.25,0],[0.5,0],[0.75,0],[1,0],[1,0.25],[1,0.5],[1,0.75],[1,1],[0.75,1],[0.5,1],[0.25,1],[0,1],[0,0.75],[0,0.5],[0,0.25]];outlineConnect=0;gradientColor=none;html=1;whiteSpace=wrap;fontSize=12;fontStyle=0;container=1;pointerEvents=0;collapsible=0;recursiveResize=0;shape=mxgraph.aws4.group;grIcon=mxgraph.aws4.group_security_group;grStroke=0;strokeColor=#7AA116;fillColor=#F2F6E8;verticalAlign=top;align=left;spacingLeft=30;fontColor=#248814;dashed=0;" parent="ZNa6b4LFm4NdDfefMSjD-52" vertex="1">
          <mxGeometry x="200" y="370" width="520" height="400" as="geometry" />
        </mxCell>
        <mxCell id="ZNa6b4LFm4NdDfefMSjD-54" value="Region" style="points=[[0,0],[0.25,0],[0.5,0],[0.75,0],[1,0],[1,0.25],[1,0.5],[1,0.75],[1,1],[0.75,1],[0.5,1],[0.25,1],[0,1],[0,0.75],[0,0.5],[0,0.25]];outlineConnect=0;gradientColor=none;html=1;whiteSpace=wrap;fontSize=12;fontStyle=0;container=1;pointerEvents=0;collapsible=0;recursiveResize=0;shape=mxgraph.aws4.group;grIcon=mxgraph.aws4.group_region;strokeColor=#00A4A6;fillColor=none;verticalAlign=top;align=left;spacingLeft=30;fontColor=#147EBA;dashed=1;" parent="ZNa6b4LFm4NdDfefMSjD-52" vertex="1">
          <mxGeometry x="70" y="140" width="2200" height="1360" as="geometry" />
        </mxCell>
        <mxCell id="ZNa6b4LFm4NdDfefMSjD-108" value="" style="group" parent="ZNa6b4LFm4NdDfefMSjD-54" vertex="1" connectable="0">
          <mxGeometry x="2020.0000000000002" y="750" width="114.99999999999977" height="149.60000000000002" as="geometry" />
        </mxCell>
        <mxCell id="ZNa6b4LFm4NdDfefMSjD-104" value="" style="sketch=0;outlineConnect=0;fontColor=#232F3E;gradientColor=none;fillColor=#7AA116;strokeColor=none;dashed=0;verticalLabelPosition=bottom;verticalAlign=top;align=center;html=1;fontSize=12;fontStyle=0;aspect=fixed;pointerEvents=1;shape=mxgraph.aws4.bucket_with_objects;" parent="ZNa6b4LFm4NdDfefMSjD-108" vertex="1">
          <mxGeometry width="115" height="119.6" as="geometry" />
        </mxCell>
        <mxCell id="ZNa6b4LFm4NdDfefMSjD-107" value="&lt;font style=&quot;font-size: 16px;&quot;&gt;&lt;b&gt;Bucket&lt;/b&gt;&lt;/font&gt;" style="text;strokeColor=none;align=center;fillColor=none;html=1;verticalAlign=middle;whiteSpace=wrap;rounded=0;" parent="ZNa6b4LFm4NdDfefMSjD-108" vertex="1">
          <mxGeometry x="27.499999999999773" y="119.60000000000002" width="60" height="30" as="geometry" />
        </mxCell>
        <mxCell id="ZNa6b4LFm4NdDfefMSjD-130" value="" style="group" parent="ZNa6b4LFm4NdDfefMSjD-54" vertex="1" connectable="0">
          <mxGeometry x="2020" y="480" width="128" height="158" as="geometry" />
        </mxCell>
        <mxCell id="ZNa6b4LFm4NdDfefMSjD-113" value="" style="sketch=0;points=[[0,0,0],[0.25,0,0],[0.5,0,0],[0.75,0,0],[1,0,0],[0,1,0],[0.25,1,0],[0.5,1,0],[0.75,1,0],[1,1,0],[0,0.25,0],[0,0.5,0],[0,0.75,0],[1,0.25,0],[1,0.5,0],[1,0.75,0]];outlineConnect=0;fontColor=#232F3E;fillColor=#ED7100;strokeColor=#ffffff;dashed=0;verticalLabelPosition=bottom;verticalAlign=top;align=center;html=1;fontSize=12;fontStyle=0;aspect=fixed;shape=mxgraph.aws4.resourceIcon;resIcon=mxgraph.aws4.ecr;" parent="ZNa6b4LFm4NdDfefMSjD-130" vertex="1">
          <mxGeometry width="128" height="128" as="geometry" />
        </mxCell>
        <mxCell id="ZNa6b4LFm4NdDfefMSjD-129" value="&lt;font style=&quot;font-size: 16px;&quot;&gt;AWS ECR&lt;/font&gt;" style="text;strokeColor=none;align=center;fillColor=none;html=1;verticalAlign=middle;whiteSpace=wrap;rounded=0;" parent="ZNa6b4LFm4NdDfefMSjD-130" vertex="1">
          <mxGeometry x="12.5" y="128" width="90" height="30" as="geometry" />
        </mxCell>
        <mxCell id="ZNa6b4LFm4NdDfefMSjD-131" value="Internet&#xa;gateway" style="sketch=0;outlineConnect=0;fontColor=#232F3E;gradientColor=none;strokeColor=#232F3E;fillColor=#ffffff;dashed=0;verticalLabelPosition=bottom;verticalAlign=top;align=center;html=1;fontSize=12;fontStyle=0;aspect=fixed;shape=mxgraph.aws4.resourceIcon;resIcon=mxgraph.aws4.internet_gateway;" parent="ZNa6b4LFm4NdDfefMSjD-54" vertex="1">
          <mxGeometry x="-40" y="638" width="95" height="95" as="geometry" />
        </mxCell>
        <mxCell id="ZNa6b4LFm4NdDfefMSjD-138" value="" style="group" parent="ZNa6b4LFm4NdDfefMSjD-54" vertex="1" connectable="0">
          <mxGeometry x="2004" y="280" width="160" height="120" as="geometry" />
        </mxCell>
        <mxCell id="ZNa6b4LFm4NdDfefMSjD-136" value="" style="sketch=0;outlineConnect=0;fontColor=#232F3E;gradientColor=none;fillColor=#E7157B;strokeColor=none;dashed=0;verticalLabelPosition=bottom;verticalAlign=top;align=center;html=1;fontSize=12;fontStyle=0;aspect=fixed;pointerEvents=1;shape=mxgraph.aws4.cloudwatch_logs;" parent="ZNa6b4LFm4NdDfefMSjD-138" vertex="1">
          <mxGeometry x="21" width="118" height="87.75" as="geometry" />
        </mxCell>
        <mxCell id="ZNa6b4LFm4NdDfefMSjD-137" value="&lt;font style=&quot;font-size: 16px;&quot;&gt;&lt;b&gt;CloudWatch Logs&lt;/b&gt;&lt;/font&gt;" style="text;strokeColor=none;align=center;fillColor=none;html=1;verticalAlign=middle;whiteSpace=wrap;rounded=0;" parent="ZNa6b4LFm4NdDfefMSjD-138" vertex="1">
          <mxGeometry y="90" width="160" height="30" as="geometry" />
        </mxCell>
        <mxCell id="waD4MCvqAJ1mNzrGoZr5-4" value="" style="group" parent="ZNa6b4LFm4NdDfefMSjD-54" vertex="1" connectable="0">
          <mxGeometry x="2030" y="989" width="120" height="181" as="geometry" />
        </mxCell>
        <mxCell id="waD4MCvqAJ1mNzrGoZr5-2" value="" style="outlineConnect=0;dashed=0;verticalLabelPosition=bottom;verticalAlign=top;align=center;html=1;shape=mxgraph.aws3.cloudformation;fillColor=#759C3E;gradientColor=none;" parent="waD4MCvqAJ1mNzrGoZr5-4" vertex="1">
          <mxGeometry width="120" height="151" as="geometry" />
        </mxCell>
        <mxCell id="waD4MCvqAJ1mNzrGoZr5-3" value="CloudFormation" style="text;strokeColor=none;align=center;fillColor=none;html=1;verticalAlign=middle;whiteSpace=wrap;rounded=0;" parent="waD4MCvqAJ1mNzrGoZr5-4" vertex="1">
          <mxGeometry x="30" y="151" width="60" height="30" as="geometry" />
        </mxCell>
        <mxCell id="waD4MCvqAJ1mNzrGoZr5-8" value="" style="sketch=0;points=[[0,0,0],[0.25,0,0],[0.5,0,0],[0.75,0,0],[1,0,0],[0,1,0],[0.25,1,0],[0.5,1,0],[0.75,1,0],[1,1,0],[0,0.25,0],[0,0.5,0],[0,0.75,0],[1,0.25,0],[1,0.5,0],[1,0.75,0]];outlineConnect=0;fontColor=#232F3E;fillColor=#C925D1;strokeColor=#ffffff;dashed=0;verticalLabelPosition=bottom;verticalAlign=top;align=center;html=1;fontSize=12;fontStyle=0;aspect=fixed;shape=mxgraph.aws4.resourceIcon;resIcon=mxgraph.aws4.codedeploy;" parent="ZNa6b4LFm4NdDfefMSjD-54" vertex="1">
          <mxGeometry x="2043" y="1200" width="105" height="105" as="geometry" />
        </mxCell>
        <mxCell id="waD4MCvqAJ1mNzrGoZr5-9" value="CodeDeploy" style="text;strokeColor=none;align=center;fillColor=none;html=1;verticalAlign=middle;whiteSpace=wrap;rounded=0;" parent="ZNa6b4LFm4NdDfefMSjD-54" vertex="1">
          <mxGeometry x="2065.5" y="1310" width="60" height="30" as="geometry" />
        </mxCell>
        <mxCell id="ZNa6b4LFm4NdDfefMSjD-55" value="VPC" style="points=[[0,0],[0.25,0],[0.5,0],[0.75,0],[1,0],[1,0.25],[1,0.5],[1,0.75],[1,1],[0.75,1],[0.5,1],[0.25,1],[0,1],[0,0.75],[0,0.5],[0,0.25]];outlineConnect=0;gradientColor=none;html=1;whiteSpace=wrap;fontSize=12;fontStyle=0;container=1;pointerEvents=0;collapsible=0;recursiveResize=0;shape=mxgraph.aws4.group;grIcon=mxgraph.aws4.group_vpc2;strokeColor=#8C4FFF;fillColor=none;verticalAlign=top;align=left;spacingLeft=30;fontColor=#AAB7B8;dashed=0;" parent="1" vertex="1">
          <mxGeometry x="-680" y="240" width="1840" height="1280" as="geometry" />
        </mxCell>
        <mxCell id="ZNa6b4LFm4NdDfefMSjD-101" value="Public subnet" style="points=[[0,0],[0.25,0],[0.5,0],[0.75,0],[1,0],[1,0.25],[1,0.5],[1,0.75],[1,1],[0.75,1],[0.5,1],[0.25,1],[0,1],[0,0.75],[0,0.5],[0,0.25]];outlineConnect=0;gradientColor=none;html=1;whiteSpace=wrap;fontSize=12;fontStyle=0;container=1;pointerEvents=0;collapsible=0;recursiveResize=0;shape=mxgraph.aws4.group;grIcon=mxgraph.aws4.group_security_group;grStroke=0;strokeColor=#7AA116;fillColor=#F2F6E8;verticalAlign=top;align=left;spacingLeft=30;fontColor=#248814;dashed=0;" parent="ZNa6b4LFm4NdDfefMSjD-55" vertex="1">
          <mxGeometry x="80" y="660" width="530" height="320" as="geometry" />
        </mxCell>
        <mxCell id="ZNa6b4LFm4NdDfefMSjD-60" value="" style="outlineConnect=0;dashed=0;verticalLabelPosition=bottom;verticalAlign=top;align=center;html=1;shape=mxgraph.aws3.vpc_nat_gateway;fillColor=#F58536;gradientColor=none;" parent="ZNa6b4LFm4NdDfefMSjD-55" vertex="1">
          <mxGeometry x="266" y="220" width="100" height="97.22" as="geometry" />
        </mxCell>
        <mxCell id="ZNa6b4LFm4NdDfefMSjD-14" value="TargetGroupBlue" style="rounded=0;whiteSpace=wrap;html=1;" parent="ZNa6b4LFm4NdDfefMSjD-55" vertex="1">
          <mxGeometry x="640.0023076923077" y="340.00000000000006" width="133.84615384615384" height="56.666666666666664" as="geometry" />
        </mxCell>
        <mxCell id="ZNa6b4LFm4NdDfefMSjD-103" style="edgeStyle=orthogonalEdgeStyle;rounded=0;orthogonalLoop=1;jettySize=auto;html=1;strokeWidth=3;entryX=0;entryY=0.5;entryDx=0;entryDy=0;" parent="ZNa6b4LFm4NdDfefMSjD-55" target="ZNa6b4LFm4NdDfefMSjD-15" edge="1">
          <mxGeometry relative="1" as="geometry">
            <mxPoint x="315" y="708.9980682257221" as="sourcePoint" />
            <mxPoint x="950" y="570" as="targetPoint" />
            <Array as="points">
              <mxPoint x="315" y="769" />
            </Array>
          </mxGeometry>
        </mxCell>
        <mxCell id="ZNa6b4LFm4NdDfefMSjD-102" style="edgeStyle=orthogonalEdgeStyle;rounded=0;orthogonalLoop=1;jettySize=auto;html=1;strokeWidth=3;" parent="ZNa6b4LFm4NdDfefMSjD-55" source="ZNa6b4LFm4NdDfefMSjD-115" target="ZNa6b4LFm4NdDfefMSjD-14" edge="1">
          <mxGeometry relative="1" as="geometry">
            <mxPoint x="365" y="749.8" as="sourcePoint" />
            <mxPoint x="599.9984615384615" y="567.8" as="targetPoint" />
            <Array as="points">
              <mxPoint x="315" y="360" />
            </Array>
          </mxGeometry>
        </mxCell>
        <mxCell id="ZNa6b4LFm4NdDfefMSjD-117" value="Availability zone" style="sketch=0;outlineConnect=0;gradientColor=none;html=1;whiteSpace=wrap;fontSize=12;fontStyle=0;shape=mxgraph.aws4.group;grIcon=mxgraph.aws4.group_availability_zone;strokeColor=#545B64;fillColor=none;verticalAlign=top;align=left;spacingLeft=30;fontColor=#545B64;dashed=1;" parent="ZNa6b4LFm4NdDfefMSjD-55" vertex="1">
          <mxGeometry x="50" y="50" width="1760" height="530" as="geometry" />
        </mxCell>
        <mxCell id="ZNa6b4LFm4NdDfefMSjD-115" value="" style="sketch=0;outlineConnect=0;fontColor=#232F3E;gradientColor=none;fillColor=#8C4FFF;strokeColor=none;dashed=0;verticalLabelPosition=bottom;verticalAlign=top;align=center;html=1;fontSize=12;fontStyle=0;aspect=fixed;pointerEvents=1;shape=mxgraph.aws4.application_load_balancer;" parent="ZNa6b4LFm4NdDfefMSjD-55" vertex="1">
          <mxGeometry x="231" y="540" width="170" height="170" as="geometry" />
        </mxCell>
        <mxCell id="ZNa6b4LFm4NdDfefMSjD-15" value="TargetGroupGreen" style="rounded=0;whiteSpace=wrap;html=1;" parent="ZNa6b4LFm4NdDfefMSjD-55" vertex="1">
          <mxGeometry x="649.9961538461539" y="740" width="133.84615384615384" height="56.666666666666664" as="geometry" />
        </mxCell>
        <mxCell id="waD4MCvqAJ1mNzrGoZr5-14" value="Availability zone" style="sketch=0;outlineConnect=0;gradientColor=none;html=1;whiteSpace=wrap;fontSize=12;fontStyle=0;shape=mxgraph.aws4.group;grIcon=mxgraph.aws4.group_availability_zone;strokeColor=#545B64;fillColor=none;verticalAlign=top;align=left;spacingLeft=30;fontColor=#545B64;dashed=1;" parent="ZNa6b4LFm4NdDfefMSjD-55" vertex="1">
          <mxGeometry x="50" y="630" width="1760" height="490" as="geometry" />
        </mxCell>
        <mxCell id="ZNa6b4LFm4NdDfefMSjD-61" value="" style="sketch=0;points=[[0,0,0],[0.25,0,0],[0.5,0,0],[0.75,0,0],[1,0,0],[0,1,0],[0.25,1,0],[0.5,1,0],[0.75,1,0],[1,1,0],[0,0.25,0],[0,0.5,0],[0,0.75,0],[1,0.25,0],[1,0.5,0],[1,0.75,0]];outlineConnect=0;fontColor=#232F3E;fillColor=#ED7100;strokeColor=#ffffff;dashed=0;verticalLabelPosition=bottom;verticalAlign=top;align=center;html=1;fontSize=12;fontStyle=0;aspect=fixed;shape=mxgraph.aws4.resourceIcon;resIcon=mxgraph.aws4.fargate;" parent="1" vertex="1">
          <mxGeometry x="281.14111111111106" y="360" width="56.92307692307691" height="56.92307692307691" as="geometry" />
        </mxCell>
        <mxCell id="ZNa6b4LFm4NdDfefMSjD-21" value="&lt;font style=&quot;color: light-dark(rgb(0, 0, 0), rgb(216, 109, 12)); font-size: 16px;&quot;&gt;&lt;b&gt;ECS Fargate Cluster&lt;/b&gt;&lt;/font&gt;" style="text;strokeColor=none;align=center;fillColor=none;html=1;verticalAlign=middle;whiteSpace=wrap;rounded=0;" parent="1" vertex="1">
          <mxGeometry x="341" y="360" width="160" height="30" as="geometry" />
        </mxCell>
        <mxCell id="ZNa6b4LFm4NdDfefMSjD-76" value="" style="group" parent="1" vertex="1" connectable="0">
          <mxGeometry x="260.26571249482475" y="590" width="820" height="690" as="geometry" />
        </mxCell>
        <mxCell id="ZNa6b4LFm4NdDfefMSjD-19" value="" style="rounded=0;whiteSpace=wrap;html=1;strokeColor=light-dark(#000000,#D86D0C);fillColor=none;" parent="ZNa6b4LFm4NdDfefMSjD-76" vertex="1">
          <mxGeometry x="20" y="-230" width="739.35" height="920" as="geometry" />
        </mxCell>
        <mxCell id="ZNa6b4LFm4NdDfefMSjD-64" value="Private subnet" style="points=[[0,0],[0.25,0],[0.5,0],[0.75,0],[1,0],[1,0.25],[1,0.5],[1,0.75],[1,1],[0.75,1],[0.5,1],[0.25,1],[0,1],[0,0.75],[0,0.5],[0,0.25]];outlineConnect=0;html=1;whiteSpace=wrap;fontSize=12;fontStyle=0;container=1;pointerEvents=0;collapsible=0;recursiveResize=0;shape=mxgraph.aws4.group;grIcon=mxgraph.aws4.group_security_group;grStroke=0;strokeColor=#10739e;fillColor=#b1ddf0;verticalAlign=top;align=left;spacingLeft=30;dashed=0;" parent="ZNa6b4LFm4NdDfefMSjD-76" vertex="1">
          <mxGeometry x="100" y="290" width="720" height="344.61" as="geometry" />
        </mxCell>
        <mxCell id="ZNa6b4LFm4NdDfefMSjD-48" value="Private subnet" style="points=[[0,0],[0.25,0],[0.5,0],[0.75,0],[1,0],[1,0.25],[1,0.5],[1,0.75],[1,1],[0.75,1],[0.5,1],[0.25,1],[0,1],[0,0.75],[0,0.5],[0,0.25]];outlineConnect=0;html=1;whiteSpace=wrap;fontSize=12;fontStyle=0;container=1;pointerEvents=0;collapsible=0;recursiveResize=0;shape=mxgraph.aws4.group;grIcon=mxgraph.aws4.group_security_group;grStroke=0;fillColor=#b1ddf0;verticalAlign=top;align=left;spacingLeft=30;strokeWidth=4;perimeterSpacing=4;strokeColor=#10739e;gradientColor=none;" parent="ZNa6b4LFm4NdDfefMSjD-76" vertex="1">
          <mxGeometry x="88.75" y="-170" width="731.25" height="390" as="geometry" />
        </mxCell>
        <mxCell id="ZNa6b4LFm4NdDfefMSjD-23" value="" style="rounded=0;whiteSpace=wrap;html=1;strokeColor=light-dark(#000000,#D86D0C);strokeWidth=4;fillColor=none;" parent="ZNa6b4LFm4NdDfefMSjD-76" vertex="1">
          <mxGeometry x="210" y="-71" width="490" height="581" as="geometry" />
        </mxCell>
        <mxCell id="ZNa6b4LFm4NdDfefMSjD-24" value="&lt;font style=&quot;color: light-dark(rgb(0, 0, 0), rgb(216, 109, 12));&quot;&gt;Fargate Service&lt;/font&gt;" style="text;strokeColor=none;align=center;fillColor=none;html=1;verticalAlign=middle;whiteSpace=wrap;rounded=0;" parent="ZNa6b4LFm4NdDfefMSjD-76" vertex="1">
          <mxGeometry x="374.1939410953914" y="-71" width="104.7696232602338" height="30" as="geometry" />
        </mxCell>
        <mxCell id="ZNa6b4LFm4NdDfefMSjD-22" value="" style="sketch=0;outlineConnect=0;fontColor=#232F3E;gradientColor=none;fillColor=#ED7100;strokeColor=none;dashed=0;verticalLabelPosition=bottom;verticalAlign=top;align=center;html=1;fontSize=12;fontStyle=0;aspect=fixed;pointerEvents=1;shape=mxgraph.aws4.ecs_service;" parent="ZNa6b4LFm4NdDfefMSjD-76" vertex="1">
          <mxGeometry x="212.37957283065543" y="-69.94000000000005" width="24.325433043365628" height="29.93899451491154" as="geometry" />
        </mxCell>
        <mxCell id="ZNa6b4LFm4NdDfefMSjD-93" value="" style="group" parent="ZNa6b4LFm4NdDfefMSjD-76" vertex="1" connectable="0">
          <mxGeometry x="409.72999999999996" width="120" height="140" as="geometry" />
        </mxCell>
        <mxCell id="ZNa6b4LFm4NdDfefMSjD-173" value="" style="group" parent="ZNa6b4LFm4NdDfefMSjD-76" vertex="1" connectable="0">
          <mxGeometry x="239.7342875051753" y="309" width="210" height="181" as="geometry" />
        </mxCell>
        <mxCell id="ZNa6b4LFm4NdDfefMSjD-174" value="" style="group" parent="ZNa6b4LFm4NdDfefMSjD-173" vertex="1" connectable="0">
          <mxGeometry x="40" y="50" width="102.92" height="100" as="geometry" />
        </mxCell>
        <mxCell id="ZNa6b4LFm4NdDfefMSjD-175" value="" style="shape=image;html=1;verticalAlign=top;verticalLabelPosition=bottom;labelBackgroundColor=#ffffff;imageAspect=0;aspect=fixed;image=https://cdn1.iconfinder.com/data/icons/unicons-line-vol-3/24/docker-128.png;imageBackground=none;noLabel=0;" parent="ZNa6b4LFm4NdDfefMSjD-174" vertex="1">
          <mxGeometry x="12" width="67.66666666666667" height="67.66666666666667" as="geometry" />
        </mxCell>
        <mxCell id="ZNa6b4LFm4NdDfefMSjD-176" value="&lt;font style=&quot;font-size: 16px;&quot;&gt;&lt;b&gt;Docker container&lt;/b&gt;&lt;/font&gt;" style="text;strokeColor=none;align=center;fillColor=none;html=1;verticalAlign=middle;whiteSpace=wrap;rounded=0;" parent="ZNa6b4LFm4NdDfefMSjD-174" vertex="1">
          <mxGeometry x="19.79230769230769" y="78.57142857142858" width="47.501538461538466" height="21.42857142857143" as="geometry" />
        </mxCell>
        <mxCell id="ZNa6b4LFm4NdDfefMSjD-177" value="``" style="group" parent="ZNa6b4LFm4NdDfefMSjD-173" vertex="1" connectable="0">
          <mxGeometry width="210" height="181" as="geometry" />
        </mxCell>
        <mxCell id="ZNa6b4LFm4NdDfefMSjD-178" value="&lt;span style=&quot;white-space: pre;&quot;&gt;&#x9;&lt;/span&gt;&lt;span style=&quot;white-space: pre;&quot;&gt;&#x9;&lt;/span&gt;" style="rounded=0;whiteSpace=wrap;html=1;dashed=1;dashPattern=8 8;fillColor=none;strokeColor=light-dark(#000000,#F47E10);" parent="ZNa6b4LFm4NdDfefMSjD-177" vertex="1">
          <mxGeometry width="170" height="181" as="geometry" />
        </mxCell>
        <mxCell id="ZNa6b4LFm4NdDfefMSjD-179" value="" style="sketch=0;outlineConnect=0;fontColor=#232F3E;gradientColor=none;fillColor=#ED7100;strokeColor=none;dashed=0;verticalLabelPosition=bottom;verticalAlign=top;align=center;html=1;fontSize=12;fontStyle=0;aspect=fixed;pointerEvents=1;shape=mxgraph.aws4.ecs_task;" parent="ZNa6b4LFm4NdDfefMSjD-177" vertex="1">
          <mxGeometry width="30.83" height="40" as="geometry" />
        </mxCell>
        <mxCell id="ZNa6b4LFm4NdDfefMSjD-180" value="&lt;font style=&quot;font-size: 16px;&quot;&gt;&lt;b&gt;Fargate task&lt;/b&gt;&lt;/font&gt;" style="text;strokeColor=none;align=center;fillColor=none;html=1;verticalAlign=middle;whiteSpace=wrap;rounded=0;" parent="ZNa6b4LFm4NdDfefMSjD-177" vertex="1">
          <mxGeometry x="31.11" y="2.2" width="108.89" height="37.15" as="geometry" />
        </mxCell>
        <mxCell id="ZNa6b4LFm4NdDfefMSjD-181" value="" style="group" parent="ZNa6b4LFm4NdDfefMSjD-76" vertex="1" connectable="0">
          <mxGeometry x="239.73428750517527" y="-20" width="210" height="181" as="geometry" />
        </mxCell>
        <mxCell id="ZNa6b4LFm4NdDfefMSjD-182" value="" style="group" parent="ZNa6b4LFm4NdDfefMSjD-181" vertex="1" connectable="0">
          <mxGeometry x="40" y="50" width="102.92" height="100" as="geometry" />
        </mxCell>
        <mxCell id="ZNa6b4LFm4NdDfefMSjD-183" value="" style="shape=image;html=1;verticalAlign=top;verticalLabelPosition=bottom;labelBackgroundColor=#ffffff;imageAspect=0;aspect=fixed;image=https://cdn1.iconfinder.com/data/icons/unicons-line-vol-3/24/docker-128.png;imageBackground=none;noLabel=0;" parent="ZNa6b4LFm4NdDfefMSjD-182" vertex="1">
          <mxGeometry x="12" width="67.66666666666667" height="67.66666666666667" as="geometry" />
        </mxCell>
        <mxCell id="ZNa6b4LFm4NdDfefMSjD-184" value="&lt;font style=&quot;font-size: 16px;&quot;&gt;&lt;b&gt;Docker container&lt;/b&gt;&lt;/font&gt;" style="text;strokeColor=none;align=center;fillColor=none;html=1;verticalAlign=middle;whiteSpace=wrap;rounded=0;" parent="ZNa6b4LFm4NdDfefMSjD-182" vertex="1">
          <mxGeometry x="19.79230769230769" y="78.57142857142858" width="47.501538461538466" height="21.42857142857143" as="geometry" />
        </mxCell>
        <mxCell id="ZNa6b4LFm4NdDfefMSjD-185" value="``" style="group" parent="ZNa6b4LFm4NdDfefMSjD-181" vertex="1" connectable="0">
          <mxGeometry width="210" height="181" as="geometry" />
        </mxCell>
        <mxCell id="ZNa6b4LFm4NdDfefMSjD-186" value="&lt;span style=&quot;white-space: pre;&quot;&gt;&#x9;&lt;/span&gt;&lt;span style=&quot;white-space: pre;&quot;&gt;&#x9;&lt;/span&gt;" style="rounded=0;whiteSpace=wrap;html=1;dashed=1;dashPattern=8 8;fillColor=none;strokeColor=light-dark(#000000,#F47E10);" parent="ZNa6b4LFm4NdDfefMSjD-185" vertex="1">
          <mxGeometry width="170" height="181" as="geometry" />
        </mxCell>
        <mxCell id="ZNa6b4LFm4NdDfefMSjD-187" value="" style="sketch=0;outlineConnect=0;fontColor=#232F3E;gradientColor=none;fillColor=#ED7100;strokeColor=none;dashed=0;verticalLabelPosition=bottom;verticalAlign=top;align=center;html=1;fontSize=12;fontStyle=0;aspect=fixed;pointerEvents=1;shape=mxgraph.aws4.ecs_task;" parent="ZNa6b4LFm4NdDfefMSjD-185" vertex="1">
          <mxGeometry width="30.83" height="40" as="geometry" />
        </mxCell>
        <mxCell id="ZNa6b4LFm4NdDfefMSjD-188" value="&lt;font style=&quot;font-size: 16px;&quot;&gt;&lt;b&gt;Fargate task&lt;/b&gt;&lt;/font&gt;" style="text;strokeColor=none;align=center;fillColor=none;html=1;verticalAlign=middle;whiteSpace=wrap;rounded=0;" parent="ZNa6b4LFm4NdDfefMSjD-185" vertex="1">
          <mxGeometry x="31.11" y="2.2" width="108.89" height="37.15" as="geometry" />
        </mxCell>
        <mxCell id="ZNa6b4LFm4NdDfefMSjD-189" value="" style="group" parent="ZNa6b4LFm4NdDfefMSjD-76" vertex="1" connectable="0">
          <mxGeometry x="459.7342875051753" y="-20" width="210" height="181" as="geometry" />
        </mxCell>
        <mxCell id="ZNa6b4LFm4NdDfefMSjD-190" value="" style="group" parent="ZNa6b4LFm4NdDfefMSjD-189" vertex="1" connectable="0">
          <mxGeometry x="40" y="50" width="102.92" height="100" as="geometry" />
        </mxCell>
        <mxCell id="ZNa6b4LFm4NdDfefMSjD-191" value="" style="shape=image;html=1;verticalAlign=top;verticalLabelPosition=bottom;labelBackgroundColor=#ffffff;imageAspect=0;aspect=fixed;image=https://cdn1.iconfinder.com/data/icons/unicons-line-vol-3/24/docker-128.png;imageBackground=none;noLabel=0;" parent="ZNa6b4LFm4NdDfefMSjD-190" vertex="1">
          <mxGeometry x="12" width="67.66666666666667" height="67.66666666666667" as="geometry" />
        </mxCell>
        <mxCell id="ZNa6b4LFm4NdDfefMSjD-192" value="&lt;font style=&quot;font-size: 16px;&quot;&gt;&lt;b&gt;Docker container&lt;/b&gt;&lt;/font&gt;" style="text;strokeColor=none;align=center;fillColor=none;html=1;verticalAlign=middle;whiteSpace=wrap;rounded=0;" parent="ZNa6b4LFm4NdDfefMSjD-190" vertex="1">
          <mxGeometry x="19.79230769230769" y="78.57142857142858" width="47.501538461538466" height="21.42857142857143" as="geometry" />
        </mxCell>
        <mxCell id="ZNa6b4LFm4NdDfefMSjD-193" value="``" style="group" parent="ZNa6b4LFm4NdDfefMSjD-189" vertex="1" connectable="0">
          <mxGeometry width="210" height="181" as="geometry" />
        </mxCell>
        <mxCell id="ZNa6b4LFm4NdDfefMSjD-194" value="&lt;span style=&quot;white-space: pre;&quot;&gt;&#x9;&lt;/span&gt;&lt;span style=&quot;white-space: pre;&quot;&gt;&#x9;&lt;/span&gt;" style="rounded=0;whiteSpace=wrap;html=1;dashed=1;dashPattern=8 8;fillColor=none;strokeColor=light-dark(#000000,#F47E10);" parent="ZNa6b4LFm4NdDfefMSjD-193" vertex="1">
          <mxGeometry width="170" height="181" as="geometry" />
        </mxCell>
        <mxCell id="ZNa6b4LFm4NdDfefMSjD-195" value="" style="sketch=0;outlineConnect=0;fontColor=#232F3E;gradientColor=none;fillColor=#ED7100;strokeColor=none;dashed=0;verticalLabelPosition=bottom;verticalAlign=top;align=center;html=1;fontSize=12;fontStyle=0;aspect=fixed;pointerEvents=1;shape=mxgraph.aws4.ecs_task;" parent="ZNa6b4LFm4NdDfefMSjD-193" vertex="1">
          <mxGeometry width="30.83" height="40" as="geometry" />
        </mxCell>
        <mxCell id="ZNa6b4LFm4NdDfefMSjD-196" value="&lt;font style=&quot;font-size: 16px;&quot;&gt;&lt;b&gt;Fargate task&lt;/b&gt;&lt;/font&gt;" style="text;strokeColor=none;align=center;fillColor=none;html=1;verticalAlign=middle;whiteSpace=wrap;rounded=0;" parent="ZNa6b4LFm4NdDfefMSjD-193" vertex="1">
          <mxGeometry x="31.11" y="2.2" width="108.89" height="37.15" as="geometry" />
        </mxCell>
        <mxCell id="ZNa6b4LFm4NdDfefMSjD-110" style="edgeStyle=orthogonalEdgeStyle;rounded=0;orthogonalLoop=1;jettySize=auto;html=1;exitX=1;exitY=0.5;exitDx=0;exitDy=0;strokeWidth=3;" parent="1" source="ZNa6b4LFm4NdDfefMSjD-14" edge="1">
          <mxGeometry relative="1" as="geometry">
            <mxPoint x="282" y="608" as="targetPoint" />
            <Array as="points">
              <mxPoint x="282" y="608" />
            </Array>
          </mxGeometry>
        </mxCell>
        <mxCell id="ZNa6b4LFm4NdDfefMSjD-121" style="edgeStyle=orthogonalEdgeStyle;rounded=0;orthogonalLoop=1;jettySize=auto;html=1;strokeWidth=3;" parent="1" source="ZNa6b4LFm4NdDfefMSjD-120" target="ZNa6b4LFm4NdDfefMSjD-123" edge="1">
          <mxGeometry relative="1" as="geometry">
            <mxPoint x="1913.8421052631584" y="610" as="targetPoint" />
          </mxGeometry>
        </mxCell>
        <mxCell id="ZNa6b4LFm4NdDfefMSjD-120" value="" style="sketch=0;outlineConnect=0;fontColor=#232F3E;gradientColor=none;fillColor=#232F3D;strokeColor=none;dashed=0;verticalLabelPosition=bottom;verticalAlign=top;align=center;html=1;fontSize=12;fontStyle=0;aspect=fixed;pointerEvents=1;shape=mxgraph.aws4.git_repository;" parent="1" vertex="1">
          <mxGeometry x="1860" y="240" width="107.69" height="140" as="geometry" />
        </mxCell>
        <mxCell id="ZNa6b4LFm4NdDfefMSjD-122" value="&lt;font style=&quot;font-size: 16px;&quot;&gt;&lt;b&gt;Code commit &amp;amp; push&lt;/b&gt;&lt;/font&gt;" style="text;strokeColor=none;align=left;fillColor=none;html=1;verticalAlign=middle;whiteSpace=wrap;rounded=0;" parent="1" vertex="1">
          <mxGeometry x="1933.84" y="416.92" width="90" height="90" as="geometry" />
        </mxCell>
        <mxCell id="ZNa6b4LFm4NdDfefMSjD-123" value="" style="verticalLabelPosition=bottom;html=1;verticalAlign=top;align=center;strokeColor=none;fillColor=#00BEF2;shape=mxgraph.azure.github_code;pointerEvents=1;" parent="1" vertex="1">
          <mxGeometry x="1853.85" y="560" width="120" height="120" as="geometry" />
        </mxCell>
        <mxCell id="waD4MCvqAJ1mNzrGoZr5-5" style="edgeStyle=orthogonalEdgeStyle;rounded=0;orthogonalLoop=1;jettySize=auto;html=1;strokeWidth=3;" parent="1" source="ZNa6b4LFm4NdDfefMSjD-125" target="waD4MCvqAJ1mNzrGoZr5-2" edge="1">
          <mxGeometry relative="1" as="geometry">
            <Array as="points">
              <mxPoint x="1660" y="858" />
              <mxPoint x="1660" y="1245" />
            </Array>
          </mxGeometry>
        </mxCell>
        <mxCell id="waD4MCvqAJ1mNzrGoZr5-10" style="edgeStyle=orthogonalEdgeStyle;rounded=0;orthogonalLoop=1;jettySize=auto;html=1;exitX=0.5;exitY=1;exitDx=0;exitDy=0;exitPerimeter=0;strokeWidth=3;" parent="1" source="ZNa6b4LFm4NdDfefMSjD-125" target="waD4MCvqAJ1mNzrGoZr5-8" edge="1">
          <mxGeometry relative="1" as="geometry">
            <Array as="points">
              <mxPoint x="1914" y="1440" />
            </Array>
          </mxGeometry>
        </mxCell>
        <mxCell id="ZNa6b4LFm4NdDfefMSjD-125" value="" style="aspect=fixed;sketch=0;html=1;dashed=0;whitespace=wrap;verticalLabelPosition=bottom;verticalAlign=top;fillColor=#2875E2;strokeColor=#ffffff;points=[[0.005,0.63,0],[0.1,0.2,0],[0.9,0.2,0],[0.5,0,0],[0.995,0.63,0],[0.72,0.99,0],[0.5,1,0],[0.28,0.99,0]];shape=mxgraph.kubernetes.icon2;kubernetesLabel=1;prIcon=deploy" parent="1" vertex="1">
          <mxGeometry x="1863.85" y="810" width="100" height="96" as="geometry" />
        </mxCell>
        <mxCell id="ZNa6b4LFm4NdDfefMSjD-127" style="edgeStyle=orthogonalEdgeStyle;rounded=0;orthogonalLoop=1;jettySize=auto;html=1;entryX=0.5;entryY=0;entryDx=0;entryDy=0;entryPerimeter=0;strokeWidth=3;" parent="1" source="ZNa6b4LFm4NdDfefMSjD-123" target="ZNa6b4LFm4NdDfefMSjD-125" edge="1">
          <mxGeometry relative="1" as="geometry" />
        </mxCell>
        <mxCell id="ZNa6b4LFm4NdDfefMSjD-128" value="&lt;font style=&quot;font-size: 16px;&quot;&gt;&lt;b&gt;CI trigger&lt;/b&gt;&lt;/font&gt;" style="text;strokeColor=none;align=center;fillColor=none;html=1;verticalAlign=middle;whiteSpace=wrap;rounded=0;" parent="1" vertex="1">
          <mxGeometry x="1933.84" y="730" width="76.16" height="30" as="geometry" />
        </mxCell>
        <mxCell id="ZNa6b4LFm4NdDfefMSjD-139" style="edgeStyle=orthogonalEdgeStyle;rounded=0;orthogonalLoop=1;jettySize=auto;html=1;strokeWidth=3;" parent="1" source="ZNa6b4LFm4NdDfefMSjD-131" target="ZNa6b4LFm4NdDfefMSjD-115" edge="1">
          <mxGeometry relative="1" as="geometry" />
        </mxCell>
        <mxCell id="ZNa6b4LFm4NdDfefMSjD-68" style="edgeStyle=orthogonalEdgeStyle;rounded=0;orthogonalLoop=1;jettySize=auto;html=1;exitX=0;exitY=0.5;exitDx=0;exitDy=0;exitPerimeter=0;strokeWidth=3;entryX=0.449;entryY=0.128;entryDx=0;entryDy=0;entryPerimeter=0;" parent="1" source="ZNa6b4LFm4NdDfefMSjD-60" target="ZNa6b4LFm4NdDfefMSjD-131" edge="1">
          <mxGeometry relative="1" as="geometry">
            <mxPoint x="-705.0000000000002" y="554.5253833049403" as="targetPoint" />
          </mxGeometry>
        </mxCell>
        <mxCell id="ZNa6b4LFm4NdDfefMSjD-197" style="edgeStyle=orthogonalEdgeStyle;rounded=0;orthogonalLoop=1;jettySize=auto;html=1;strokeWidth=3;exitX=0.5;exitY=0;exitDx=0;exitDy=0;exitPerimeter=0;" parent="1" source="ZNa6b4LFm4NdDfefMSjD-60" target="ZNa6b4LFm4NdDfefMSjD-104" edge="1">
          <mxGeometry relative="1" as="geometry">
            <Array as="points">
              <mxPoint x="-364" y="300" />
              <mxPoint x="1190" y="300" />
              <mxPoint x="1190" y="990" />
            </Array>
          </mxGeometry>
        </mxCell>
        <mxCell id="ZNa6b4LFm4NdDfefMSjD-199" style="edgeStyle=orthogonalEdgeStyle;rounded=0;orthogonalLoop=1;jettySize=auto;html=1;entryX=-0.002;entryY=0.716;entryDx=0;entryDy=0;entryPerimeter=0;strokeWidth=3;" parent="1" source="ZNa6b4LFm4NdDfefMSjD-15" target="ZNa6b4LFm4NdDfefMSjD-19" edge="1">
          <mxGeometry relative="1" as="geometry" />
        </mxCell>
        <mxCell id="waD4MCvqAJ1mNzrGoZr5-6" style="edgeStyle=orthogonalEdgeStyle;rounded=0;orthogonalLoop=1;jettySize=auto;html=1;strokeWidth=3;" parent="1" source="waD4MCvqAJ1mNzrGoZr5-2" target="ZNa6b4LFm4NdDfefMSjD-55" edge="1">
          <mxGeometry relative="1" as="geometry">
            <Array as="points">
              <mxPoint x="1200" y="1245" />
              <mxPoint x="1200" y="1245" />
            </Array>
          </mxGeometry>
        </mxCell>
        <mxCell id="waD4MCvqAJ1mNzrGoZr5-11" style="edgeStyle=orthogonalEdgeStyle;rounded=0;orthogonalLoop=1;jettySize=auto;html=1;strokeWidth=3;" parent="1" source="waD4MCvqAJ1mNzrGoZr5-8" target="ZNa6b4LFm4NdDfefMSjD-23" edge="1">
          <mxGeometry relative="1" as="geometry" />
        </mxCell>
        <mxCell id="waD4MCvqAJ1mNzrGoZr5-13" style="edgeStyle=orthogonalEdgeStyle;rounded=0;orthogonalLoop=1;jettySize=auto;html=1;entryX=0;entryY=0.5;entryDx=0;entryDy=0;entryPerimeter=0;strokeWidth=3;" parent="1" source="ZNa6b4LFm4NdDfefMSjD-60" target="ZNa6b4LFm4NdDfefMSjD-113" edge="1">
          <mxGeometry relative="1" as="geometry">
            <Array as="points">
              <mxPoint x="90" y="508" />
              <mxPoint x="90" y="120" />
              <mxPoint x="1220" y="120" />
              <mxPoint x="1220" y="724" />
            </Array>
          </mxGeometry>
        </mxCell>
        <mxCell id="waD4MCvqAJ1mNzrGoZr5-16" style="edgeStyle=orthogonalEdgeStyle;rounded=0;orthogonalLoop=1;jettySize=auto;html=1;exitX=0;exitY=0.25;exitDx=0;exitDy=0;strokeWidth=3;" parent="1" source="ZNa6b4LFm4NdDfefMSjD-23" edge="1">
          <mxGeometry relative="1" as="geometry">
            <mxPoint x="-369" y="560" as="targetPoint" />
            <Array as="points">
              <mxPoint x="-369" y="664" />
            </Array>
          </mxGeometry>
        </mxCell>
        <mxCell id="waD4MCvqAJ1mNzrGoZr5-17" style="edgeStyle=orthogonalEdgeStyle;rounded=0;orthogonalLoop=1;jettySize=auto;html=1;exitX=0.855;exitY=0.145;exitDx=0;exitDy=0;exitPerimeter=0;strokeWidth=3;" parent="1" source="ZNa6b4LFm4NdDfefMSjD-60" target="ZNa6b4LFm4NdDfefMSjD-136" edge="1">
          <mxGeometry relative="1" as="geometry">
            <Array as="points">
              <mxPoint x="-328" y="350" />
              <mxPoint x="1354" y="350" />
            </Array>
          </mxGeometry>
        </mxCell>
      </root>
    </mxGraphModel>
  </diagram>
</mxfile>
